<svg xmlns="http://www.w3.org/2000/svg" viewBox="0 0 125 29"><g fill="#a0927e"><path d="M65.81.12H54.02v.77h.54c1.28 0 1.86.53 1.86 1.69v23.88c0 1.15-.6 1.69-1.86 1.69h-.54v.77h11.79c8.96 0 15.21-5.92 15.21-14.4S74.76.12 65.81.12m-.29 27.8h-5.29V1.12h5.29c6.92 0 11.39 5.28 11.39 13.44s-4.47 13.37-11.39 13.37"/><path d="m124.24 21.22-.26.78c-1.33 4.02-2.42 5.92-6.58 5.92h-8.02V2.58c0-1.15.57-1.69 1.81-1.69h.52V.12H79.22v.77h1.89c1.23 0 1.81.53 1.81 1.69v23.88c0 1.15-.57 1.69-1.81 1.69h-1.9v.77h44.2l1.58-7.69h-.77Zm-20.39 6.93h-2.31l1.42-6.93h-.73l-.26.78c-1.33 4.02-2.42 5.92-6.62 5.92h-8.74V14.54h5.85c2.14 0 2.67.94 3.11 3.19l.13.73h.67V9.63h-.67l-.13.68c-.49 2.39-1.04 3.23-3.11 3.23h-5.85V1.12h9.02c3.21 0 4.16 1.49 5.09 4.8l.21.78h.68l-.7-5.82h2.93c1.23 0 1.81.52 1.91 1.69v23.87c-.1 1.18-.69 1.7-1.91 1.7h.02Zm-50.21-6.93-.26.78c-1.33 4.01-2.42 5.92-6.62 5.92h-8.74V14.54h5.85c2.14 0 2.67.94 3.11 3.19l.13.73h.67V9.63h-.67l-.13.68c-.5 2.39-1.04 3.23-3.11 3.23h-5.85V1.12h9.02c2.54 0 3.94.72 5.09 4.8l.22.78h.68l-.8-6.58H22.54v.77h1.23c1.24 0 1.81.53 1.81 1.69v23.88c0 .89-.34 1.41-1.08 1.6-.08.02-.19.04-.27.04q-.15 0-.3-.06c-.67-.24-1.39-.95-2.79-2.89L13.9 15.11c2.06-.28 3.94-.88 5.27-2.44 1.06-1.25 1.8-2.71 1.8-5.42S17.99.55 13.3.08C12.82.03 12.37 0 11.86 0H0v.77h.75c1.24 0 1.81.54 1.81 1.7v23.97c0 1.15-.57 1.7-1.81 1.7H0v.77h8.95v-.77H8.1c-1.25 0-1.81-.52-1.81-1.7V15.58h3.69l7.48 10.6c1.52 2.17 2.45 2.83 5.16 2.83s1.35-.04 2.19-.09h27.97l1.58-7.69h-.73Zm-42.7-6.64H6.29V1h5.03c.35 0 .68.02.99.07 2.86.44 4.63 2.9 4.63 6.44s-1.57 5.83-3.99 6.72c-.65.23-1.33.35-2.01.34m23.38 11.89c0 1.15-.57 1.69-1.81 1.69h-1.43c-1.23 0-1.8-.53-1.8-1.69V2.58c0-1.13.56-1.66 1.74-1.69h1.49c1.24 0 1.81.54 1.81 1.69z"/></g></svg>
